<?xml version="1.0" standalone="no"?>
<!DOCTYPE svg PUBLIC "-//W3C//DTD SVG 20010904//EN"
 "http://www.w3.org/TR/2001/REC-SVG-20010904/DTD/svg10.dtd">
<svg version="1.0" xmlns="http://www.w3.org/2000/svg"
 width="64.000000pt" height="64.000000pt" viewBox="0 0 64.000000 64.000000"
 preserveAspectRatio="xMidYMid meet">

<g transform="translate(0.000000,64.000000) scale(0.100000,-0.100000)"
fill="#000000" stroke="none">
<path d="M292 588 c-11 -24 -29 -71 -43 -105 l-23 -62 -108 -7 c-60 -3 -111
-11 -115 -17 -6 -10 33 -50 117 -119 l45 -37 -26 -105 c-20 -78 -23 -108 -15
-115 8 -7 40 8 99 45 48 30 93 54 100 54 6 0 50 -25 97 -55 57 -36 88 -51 96
-44 8 7 5 37 -14 114 l-26 105 44 37 c90 76 123 110 117 120 -4 6 -55 14 -115
18 l-107 7 -40 101 c-22 55 -46 102 -53 105 -7 2 -20 -15 -30 -40z"/>
</g>
</svg>
